<svg height="35px" version="1.1" viewBox="0 0 1400 900" xmlns="http://www.w3.org/2000/svg">
<g fill="#686868">
<path d="m344.69 0h607.32c1.16 0.33 2.35 0.37 3.57 0.11l0.02 1.65c3.02-0.43 6.15-0.61 9.14 0.14 2.4 1.59 5.19 1.43 7.71 2.62 17.63 7.27 32.7 20.23 47.49 32.53 10.32 9.69 21.12 18.87 31.05 28.97 27.01 26.7 54.27 53.33 77.65 83.28 6.08 8.53 12.15 17.03 16.13 26.64 1.21 0.67 0.04 2.55 1.57 2.95l0.24 3.45c1.49 1.75 2.05 4.67 1.85 7.17l1.04 0.18c0.95 27.09 0.24 54.22 0.46 81.32v505.96c-0.04 11.41 0.2 22.84-0.54 34.23l-0.94 0.27c0.03 1.85-0.09 3.69-0.2 5.55-1.48 0.78 0 3.03-1.61 3.67-0.37 5.99-3.4 11.32-5.23 16.84 0 1.72-2.32 2.54-1.98 4.39-9.14 18.03-23.32 33.79-41.01 43.82-1.34 0.72-2.31 2.06-3.95 1.94-1.2 0.94-2.3 2.11-3.95 1.92-1.26 1.84-3.64 1.37-4.98 2.81-2.91-0.02-4.92 2.59-7.81 2.23l-0.41 0.88c-1.21-0.35-2.16 0.17-3.05 0.9-1.45 0-2.87 0.11-4.27 0.34-0.64 1.62-2.9 0.07-3.72 1.58-2.66 0.03-5.31 0.3-7.95 0.32l0.57 1.38c-3.84-0.94-7.96 0.09-11.9-0.13-196.99 0.04-393.98 0-590.97 0.02-37.97-0.11-75.98 0.23-113.94-0.21l-0.93 0.44 0.55-1.48c-4.38-0.25-8.83 0.09-12.58-2.12-2.51 0.62-4.15-1.19-6.47-1.09-0.72-0.23-2.17-0.71-2.89-0.95-2.95-2.45-7.46-2.1-10.38-4.95-1.64 0.21-2.69-0.97-3.85-1.88-2.12-0.04-3.43-1.97-5.32-2.73-24.71-14.63-42.44-40.23-47.86-67.28-1.84-1.68 0.41-5.01-1.71-6.6-0.47-5.37-0.48-10.75-0.58-16.13v-682.9c-0.01-7.71-0.02-15.44 0.58-23.13 2.02-1.55 0.05-4.54 1.64-6.44 0.16-2.32 1.67-3.96 1.3-6.42 2.32-5.51 3.47-11.74 6.85-16.79-0.61-2.16 2.24-2.91 2.06-4.95 9.98-17.87 25.39-33.52 43.77-42.6 0.85-0.87 1.87-1.41 3.12-1.3 1.47-1.81 3.81-1.57 5.46-2.92 2.7-0.02 4.55-2.47 7.28-2.2 0.71-1.42 2.68-0.35 3.58-1.69 4.95-0.07 8.73-2.89 13.9-2.07l-0.17-1.18c1.31-0.09 3.94-0.27 5.25-0.36m109.72 35.41c-1.81-0.3-3.64 0.02-5.44 0.15-0.39 2.15-3.9-0.29-3.67 2.03l-1.58-0.44c-0.12 0.33-0.35 1-0.46 1.34-2.46-0.96-3.18 2.86-5.51 1.98-0.12 1.45-0.88 2.1-2.28 1.94l-0.03 1.1c-0.41 0.04-1.24 0.13-1.66 0.17 0.22 2.08-2.72 1.64-2.33 3.76l-1.07 0.22c0.32 1.44-0.29 2.11-1.83 2 1.4 2.29-2.37 1.52-0.91 3.75-0.32 0.47-0.96 1.42-1.29 1.89-2.18 0.15 0.54 3.61-1.96 3.35-0.31 1.78 0.6 4.97-1.01 5.86-0.04 83.98-0.05 168.07 0 252.05 1.66 0.77 0.68 4.12 1.07 5.88l1.08 0.03c-0.06 1.56-0.28 4.12 1.86 4.26-0.16 2.02 1.37 3.55 2.44 5.18 1.73 0.34 1.01 2.9 2.71 2.59-0.72 1.86 2.19 1.46 2.04 3 2.08 0.57 3.94 3.01 5.14 4.07 0.44-0.06 1.32-0.18 1.77-0.24l0.15 1.44 1.69-0.48c-0.55 2.13 2.28 0.4 2.84 1.86 1.04 1.04 3.16-0.32 4.09 1.11 1.86 0.97 4.56-0.4 6.35 1.11 99.46-0.06 198.92 0 298.38-0.02 51.79 0.09 103.62-0.19 155.37 0.14l0.18-0.93c3.29 0.95 5.72-1.47 8.86-1.04 0.14-0.27 0.42-0.79 0.56-1.05l1.45 0.17c0.08-0.31 0.24-0.94 0.32-1.25l1.6 0.48c0.11-0.37 0.31-1.1 0.41-1.46l1.51 0.2c2.31-2.26 5.47-3.51 7.67-6.8 2.06 0.02 0.67-2.86 2.66-2.38l0.04-1.6c2.01-0.03 1.85-1.75 1.93-3.28l1.09 0.05c-0.69-1.57 1.85-2.32 0.77-4.02l1.12-0.02c0.01-0.73 0.01-2.18 0.02-2.9 2.06-0.24-0.35-3.47 1.78-3.5 0.29-33.06 0.05-66.12 0.13-99.18-0.06-51.49 0.1-103-0.09-154.49l-0.96 0.26c-0.25-1.05 0.85-3.35-0.88-3.35 0.95-2.44-1.58-3.65-1.08-5.8l-1-0.21c-0.24-0.51-0.72-1.51-0.96-2.01-0.46-1-0.65-3.13-2.04-2.92l0.02-1.03c-2.51-2.48-4.87-5.1-7.6-7.35-1.02-1.29-3.55-0.93-3.58-2.71-0.44 0.11-1.33 0.31-1.77 0.41l-0.04-1.22c-0.68-0.07-2.04-0.23-2.72-0.31l-0.32-0.77c-1.18 0.25-2.4 0.14-3.04-0.99-2.34-0.49-4.98 0.46-7.04-0.88-151.57-0.1-303.18 0.06-454.74-0.08l-0.21 0.88m-74.02 415.08 0.2 1.16c-0.96 0.01-2.88 0.03-3.84 0.04-0.67 1.14-2.62 2.11-4.17 1.73l-0.05 1.06c-1.43-0.03-2.13 1.5-3.91 1.24 0.12 1.5-0.56 2.06-2.05 1.69l-0.03 1.15c-2.53-0.19-3.29 3.69-5.11 4.04l-0.08 1.64c-2.87-0.16-1.53 4.17-4.09 4.53l0.37 1.5c-0.25 0.52-0.75 1.55-1 2.07-2.11 0.06-0.84 2.82-1.11 4.11-1.27-0.13-2.03 0.39-2.28 1.57 0.95 5.55 0.15 11.3 0.41 16.96 0 113.83 0.01 227.69-0.01 341.51l0.97-0.26c-0.77 2.28 1.69 3.64 0.91 5.99 1.22 1.03 1.47 2.72 1.96 4.27 1.74 0.52 1.07 3.77 3.04 4.05l0.07 0.95c2.55 2.4 4.68 5.52 7.81 7.16l0.26 0.99c0.42-0.06 1.26-0.19 1.68-0.25l0.12 1.22 1.15-0.23 0.01 1.14c1.88-1.08 1.95 1.33 3.76 1.08 0.81 1.86 4.27-0.43 4.22 2.03 0.45-0.06 1.35-0.19 1.79-0.25l0.49 0.74c12.02 0.59 24.07 0.16 36.1 0.29h573.04c8.98-0.13 17.98 0.32 26.95-0.35 0.62-0.7 1.43-0.86 2.43-0.46-0.06-2.3 2.94-0.28 3.9-1.8 1.93-0.56 3.35-2.08 5.26-2.26l0.11-1.16c0.42 0.07 1.25 0.2 1.67 0.27l0.25-1.01c3.11-1.6 5.23-4.71 7.77-7.1 0.25-1.76 2.64-2.66 2.23-4.73l0.95-0.31c0.1-2.51 2.61-4.12 1.99-6.83 0.95-0.92 1.21-2.01 0.79-3.29 0.26 0 0.78-0.01 1.03-0.02-0.07-119.18 0.13-238.4-0.1-357.59-0.24-0.06-0.73-0.18-0.98-0.24 0.1-0.49 0.29-1.46 0.38-1.95l-1.19-0.14c0-0.94 0.01-2.8 0.01-3.74-2.44 0.31 0.5-2.9-2.12-2.42l0.44-1.72-1.31-0.01c0.61-1.93-1.56-2.05-1.16-3.91-1.46 0.05-2.04-0.63-1.74-2.03-1.83-0.36-2.59-4.23-5.11-4.05l-0.03-1.14c-1.48 0.36-2.17-0.21-2.08-1.7-1.7 0.43-2.36-1.49-3.91-1.23l0.01-1.09c-1.45 0.45-2.42 0.13-2.92-0.95-0.27-0.02-0.83-0.06-1.1-0.08l-0.26-0.7c-0.68-0.01-2.03-0.03-2.71-0.04l-0.44-0.86c-4.83-0.65-9.8-0.25-14.29-1.14-0.84 1.55-3.26 0.08-4.71 0.61-1.51 0.38-3.6-1.72-4.79 0.08-3.17-0.15-6.36-0.15-9.52 0l-0.48-0.67c-3.92 0.07-7.58 0.75-11.52 0.67l-0.45-0.65c-3.29-0.1-6.29 0.64-9.54 0.66-1.52-2.26-4.94 1.37-6.52-0.65-2.3-0.36-5.08 1.74-6.96-0.01-0.85 0.01-2.56 0.02-3.42 0.03l-0.59 0.6c-4.09-0.15-8.18-0.05-12.26-0.06-4.52-1.24-9.44 0.28-14.24 0.08-1.74-1.77-4.75 1.33-6.79-0.77-1.65 1.5-4.19 0.24-6.19 0.75-2.49-1.71-5.93 1.07-8.76-0.3-3.1-1.1-5.96 1.13-9.05 0-1.89-1.24-4.39 1.8-5.85-0.51-1.72 1.15-4.03 1.04-5.83 0.23-6.85 0.08-13.69 0.08-20.53 0-1.32 0.5-3.58 1.24-4.49-0.04-3.17 0.14-6.36 0.15-9.53 0l-0.45 0.65c-2.01 0.69-4.49-1.68-6.02-0.03-3.72-0.05-7.48-1.25-11.06-0.06-5.4-0.7-10.96-0.34-16.47-0.58l-0.42 0.67c-3.51-0.19-7.03-0.12-10.53-0.04-1.91-1.3-4.78-0.09-7.04-0.57-3.59 1.45-7.28-0.45-11.01-0.05-1.14 1.79-3.25-0.23-4.71 0.09-1.54 0.42-3.68-0.8-4.78 0.54-4.7 0.39-9.39-1.51-13.95-0.02-2.98-0.47-6.54 0.68-9.13-0.56-5.08 0.84-10.61 0.69-15.42-0.08-0.77 0.19-2.31 0.58-3.07 0.77l-0.66-1.3-0.65 1.27c-0.91-0.01-2.72-0.01-3.63-0.02l-0.67-1.04c-1.04 1.98-3.6 0.38-5.32 0.96-1.81-1.03-3.9-0.29-5.85-0.52-1.4-0.21-3.58 1.66-4.62-0.1-3.6-0.07-6.94 0.56-10.49 0.64-2.69-1.88-7.03 0.83-9.55-0.63-3.27-0.15-6.23 0.71-9.46 0.61-1.26-1-3.14-0.65-4.49 0-3.02 0.18-5.73-0.73-8.73-0.64l-0.53 1.41-0.59-1.44c-0.93 0.02-2.78 0.04-3.7 0.05-2.31 1.83-5.81-1.41-8.72 0.76-1.34-0.65-2.77-0.9-4.27-0.75-0.99 1.48-3.46 0.02-5 0.61-2.48-1.27-5.23-0.15-7.76-0.04-1.48 0.23-3.57-1.65-4.74 0.09-3.18-0.38-7.21-1.3-9.99-0.01-2.7 0.38-4.47-1.25-6.97-0.06-2.03 1.06-5.43-2.34-6.27 0.63l-0.65-1.25c-3.1 0.89-6.38 0.44-9.6 0.68l-0.48-0.64c-1.47 0.1-2.93 0.13-4.39 0.08-1.4-0.21-3.61 1.66-4.62-0.11-4.5-0.16-8.74 0.88-13.2 0.48-4.24-1.6-8.9 1.42-13.06-0.55-1.41 0.69-3.64 1.32-4.84 0.13-2.01-0.11-4.02 1.33-5.95 0.01-2.49 0.36-4.93 0.62-7.5 0.61-2.09-2.05-6.31 1.52-8.48-0.67-1.44 0.38-2.92 0.6-4.44 0.66l-0.54-0.63c-3 0.46-6.21-0.58-9.05 0.6-2.39-0.06-4.95-1.39-7.2 0.13-1.69-0.84-4.34-1.23-5.79-0.13-1.83-0.26-3.41-0.71-5.41-0.62l-0.55 0.64c-4.85-0.15-9.72-0.1-14.57-0.02-1.91-1.66-3.78 1.19-5.67-0.71-2.51 1.41-5.5 0.21-8.22 0.74-1.01-1.28-3.22-0.56-4.55-0.04-3.87-0.42-8.14-1.13-11.96 0-2.11-0.32-4.39 0.54-6.28-0.7-1.88 1.25-4.13 0.34-6.2 0.73l-0.56-0.62c-4.09 0.24-8.26-0.24-12.2 0.55-2.01 0.61-4.22-1.73-5.85 0.08-0.87 0-2.6 0.01-3.47 0.01-0.92-1.5-3.38-0.02-4.89-0.63-2.63 1.8-7.14-1.51-9.54 0.65-1.63 0.18-2.98-0.06-4.06-0.69-0.83 0.02-2.5 0.07-3.33 0.1-1.41-0.22-3.59 1.65-4.62-0.09-4.98 0.21-9.73 0.99-14.89 0.82z"/>
<path d="m769.41 69.4c34.41-0.08 68.82 0 103.22-0.04 0.15 58.88 0.02 117.76 0.07 176.64-0.08 21.83 0.15 43.68-0.12 65.51-34.38-0.11-68.76-0.03-103.13-0.04-0.18-80.68-0.1-161.38-0.04-242.07z"/>
</g>
</svg>
