<?xml version="1.0" encoding="utf-8"?>
<!-- Svg Vector Icons : http://www.onlinewebfonts.com/icon -->
<!DOCTYPE svg PUBLIC "-//W3C//DTD SVG 1.1//EN" "http://www.w3.org/Graphics/SVG/1.1/DTD/svg11.dtd">
<svg version="1.1" xmlns="http://www.w3.org/2000/svg" xmlns:xlink="http://www.w3.org/1999/xlink" x="0px" y="0px" viewBox="0 0 1000 1000" enable-background="new 0 0 1000 1000" xml:space="preserve">
<metadata> Svg Vector Icons : http://www.onlinewebfonts.com/icon </metadata>
<g><g transform="translate(0.000000,511.000000) scale(0.100000,-0.100000)"><path d="M4313.7,4650.5c-1147.7-201.3-1892.9-816.9-2132-1761.4c-103.6-404.5-115.6-882.7-29.9-1155.7c23.9-75.7,75.7-205.2,115.6-284.9c67.8-137.5,137.5-235.1,538-755.2C2982.7,464.2,3126.1,195.2,3170,9.9c35.9-149.4,29.9-516.1-10-685.4c-127.5-536-518.1-809-1117.8-785.1c-326.8,13.9-655.5,159.4-892.6,396.5c-171.4,173.3-269,424.4-241.1,623.6c41.8,290.9,185.3,546,514.1,906.6c217.2,239.1,235.1,354.7,79.7,536c-91.7,107.6-161.4,143.5-282.9,143.5c-360.6,0-858.8-625.6-1054.1-1323c-73.7-267-87.7-693.4-27.9-930.5c83.7-334.7,255.1-613.7,534-872.7c655.5-613.7,1598-840.8,2072.2-500.1c47.8,33.9,85.7,53.8,85.7,45.8c0-39.9-151.4-265-292.9-440.3c-259-318.8-609.7-605.7-862.8-705.4c-83.7-33.9-153.4-43.8-298.9-45.8c-171.4,0-201.3,6-318.8,61.8c-71.7,33.9-153.4,67.8-183.3,75.7C709.2-3451.2,498-3692.2,498-3915.4c0-183.3,125.5-340.7,376.6-474.2c155.4-83.7,294.9-97.6,540-55.8c805,139.5,1996.5,858.8,3387.3,2042.3c103.6,87.7,199.3,161.4,213.2,161.4c11.9,0,93.7-61.8,179.3-135.5c1564.1-1347,2982.8-2150,3698.1-2092.2c191.3,15.9,406.5,135.5,502.1,279c79.7,119.6,99.6,249.1,59.8,398.5c-73.7,292.9-231.1,366.6-500.1,233.1c-127.5-63.8-151.4-67.8-326.8-67.8c-157.4,0-209.2,10-310.8,51.8c-340.7,143.5-729.3,498.1-1042.1,952.4c-55.8,81.7-101.6,161.4-101.6,175.4c0,15.9,37.9,0,95.6-41.8c326.8-233.1,908.6-193.3,1478.5,99.6c462.3,239.1,811,571.8,998.2,954.4c105.6,215.2,139.5,358.7,151.4,621.7c13.9,277-15.9,492.1-103.6,755.2c-125.5,376.6-318.8,715.3-530,926.5c-221.2,221.2-416.4,314.8-567.9,273c-139.5-37.8-304.9-239.1-306.9-370.6c0-73.7,55.8-161.4,207.2-332.8c267-298.9,362.6-446.3,442.3-679.5c147.5-440.3-51.8-824.9-559.9-1076c-221.2-107.6-372.6-147.4-569.9-147.4c-721.3,0-1111.8,404.5-1115.8,1155.7c0,153.4,10,273,31.9,358.7c47.8,187.3,185.3,438.4,372.6,683.4c460.3,603.8,559.9,771.1,635.6,1070c37.9,151.4,41.9,205.2,31.9,498.1c-15.9,476.2-101.6,807-298.9,1159.6c-354.7,633.6-1072,1064-2000.5,1199.5C5244.2,4706.3,4606.6,4702.3,4313.7,4650.5z M4178.2,1024.1c127.5-47.8,243.1-217.2,245.1-356.7c0-95.6-73.7-233.1-163.4-306.8c-149.4-117.6-402.5-83.7-520,71.7c-143.5,187.3-83.7,464.3,121.5,573.8C3943.1,1048,4090.5,1057.9,4178.2,1024.1z M6150.8,1024.1c125.5-47.8,243.1-217.2,245.1-352.7c0-201.2-183.3-382.6-388.5-382.6c-280.9,0-464.3,304.8-338.7,557.9C5750.3,1006.1,5977.4,1089.8,6150.8,1024.1z"/></g></g>
</svg>